<svg width="24" height="24" viewBox="0 0 24 24" fill="none" xmlns="http://www.w3.org/2000/svg">
<path d="M20.25 7.00195H3.75C3.33579 7.00195 3 7.33774 3 7.75195C3 8.16617 3.33579 8.50195 3.75 8.50195H20.25C20.6642 8.50195 21 8.16617 21 7.75195C21 7.33774 20.6642 7.00195 20.25 7.00195Z" fill="white"/>
<path d="M17.25 11.252H3.75C3.33579 11.252 3 11.5877 3 12.002C3 12.4162 3.33579 12.752 3.75 12.752H17.25C17.6642 12.752 18 12.4162 18 12.002C18 11.5877 17.6642 11.252 17.25 11.252Z" fill="white"/>
<path d="M20.25 15.498H3.75C3.33579 15.498 3 15.8338 3 16.248C3 16.6623 3.33579 16.998 3.75 16.998H20.25C20.6642 16.998 21 16.6623 21 16.248C21 15.8338 20.6642 15.498 20.25 15.498Z" fill="white"/>
</svg>
