<svg width="24" height="24" viewBox="0 0 24 24" fill="none" xmlns="http://www.w3.org/2000/svg">
<path d="M10.6695 15.0967C10.1635 17.8227 9.54754 20.4367 7.71954 21.8017C7.15654 17.6817 8.54854 14.5867 9.19454 11.3017C8.09254 9.3917 9.32754 5.5467 11.6515 6.4937C14.5115 7.6597 9.17454 13.5957 12.7575 14.3377C16.4985 15.1117 18.0265 7.6547 15.7065 5.2287C12.3545 1.7277 5.94954 5.1497 6.73754 10.1627C6.92954 11.3887 8.15854 11.7607 7.22854 13.4527C5.08354 12.9617 4.44354 11.2197 4.52654 8.8967C4.65854 5.0967 7.84354 2.4347 11.0375 2.0667C15.0775 1.6007 18.8685 3.5937 19.3915 7.5067C19.9815 11.9227 17.5685 16.7067 13.2495 16.3617C12.0785 16.2687 11.5865 15.6717 10.6695 15.0967Z" fill="white"/>
</svg>
